<svg id="svg" version="1.1" xmlns="http://www.w3.org/2000/svg" xmlns:xlink="http://www.w3.org/1999/xlink" width="400" height="400" viewBox="0, 0, 400,400"><g id="svgg"><path id="path0" d="M112.489 161.423 C 111.900 161.835,111.600 162.458,111.600 163.268 C 111.600 164.229,121.897 190.929,125.612 199.600 C 126.036 200.590,126.765 202.390,127.230 203.600 C 127.696 204.810,128.583 207.060,129.201 208.600 C 129.820 210.140,130.865 212.750,131.525 214.400 C 132.185 216.050,133.265 218.750,133.925 220.400 C 134.585 222.050,135.699 224.840,136.400 226.600 C 137.101 228.360,138.215 231.150,138.875 232.800 C 139.535 234.450,140.581 237.060,141.200 238.600 C 141.819 240.140,142.882 242.795,143.563 244.500 C 144.243 246.205,145.340 248.950,146.000 250.600 C 146.660 252.250,147.757 254.995,148.437 256.700 C 150.215 261.153,151.896 265.355,153.279 268.800 C 153.941 270.450,154.899 272.880,155.407 274.200 C 155.915 275.520,160.600 287.220,165.818 300.200 C 175.567 324.449,176.912 327.815,178.370 331.600 C 178.835 332.810,179.565 334.610,179.990 335.600 C 180.415 336.590,181.497 339.290,182.394 341.600 C 185.446 349.457,183.628 348.800,202.307 348.800 C 220.041 348.800,218.733 349.252,221.535 342.150 C 222.762 339.038,228.896 324.042,230.594 320.000 C 231.103 318.790,232.183 316.180,232.994 314.200 C 233.806 312.220,234.882 309.610,235.387 308.400 C 235.891 307.190,237.305 303.770,238.530 300.800 C 239.754 297.830,241.952 292.520,243.413 289.000 C 244.875 285.480,246.575 281.340,247.191 279.800 C 247.808 278.260,248.766 275.920,249.321 274.600 C 249.876 273.280,250.994 270.580,251.806 268.600 C 252.617 266.620,253.695 264.010,254.200 262.800 C 254.705 261.590,255.783 258.980,256.594 257.000 C 257.406 255.020,258.482 252.410,258.984 251.200 C 261.422 245.336,265.086 236.463,267.078 231.600 C 270.760 222.612,272.038 219.503,273.000 217.200 C 273.505 215.990,274.583 213.380,275.394 211.400 C 276.206 209.420,277.282 206.810,277.784 205.600 C 281.422 196.849,284.060 190.445,289.400 177.400 C 290.120 175.640,291.282 172.850,291.982 171.200 C 296.731 160.003,298.194 160.812,273.200 160.812 C 249.937 160.812,251.701 160.357,249.178 167.000 C 248.509 168.760,247.412 171.640,246.740 173.400 C 246.068 175.160,245.110 177.680,244.611 179.000 C 244.113 180.320,243.040 183.110,242.226 185.200 C 241.413 187.290,240.411 189.900,240.000 191.000 C 239.589 192.100,238.590 194.710,237.781 196.800 C 235.795 201.927,234.695 204.796,233.254 208.600 C 232.588 210.360,231.481 213.240,230.794 215.000 C 229.196 219.093,227.396 223.794,225.968 227.600 C 225.349 229.250,224.281 232.040,223.594 233.800 C 222.907 235.560,221.829 238.350,221.200 240.000 C 220.571 241.650,219.493 244.440,218.806 246.200 C 218.119 247.960,217.016 250.840,216.355 252.600 C 214.561 257.374,213.006 261.444,211.694 264.800 C 211.049 266.450,209.549 270.379,208.361 273.531 C 204.590 283.533,203.743 283.421,199.790 272.400 C 199.277 270.970,197.751 266.920,196.400 263.400 C 195.049 259.880,193.516 255.830,192.995 254.400 C 192.473 252.970,191.395 250.090,190.600 248.000 C 189.805 245.910,188.726 243.030,188.204 241.600 C 187.682 240.170,186.592 237.290,185.782 235.200 C 184.224 231.181,182.974 227.868,181.403 223.600 C 180.877 222.170,179.789 219.290,178.986 217.200 C 177.549 213.464,176.520 210.744,173.988 204.000 C 171.397 197.097,170.284 194.142,169.390 191.800 C 168.887 190.480,167.938 187.960,167.281 186.200 C 166.624 184.440,165.425 181.290,164.616 179.200 C 163.807 177.110,162.720 174.230,162.201 172.800 C 158.878 163.661,158.148 162.224,156.361 161.306 C 154.760 160.483,113.675 160.592,112.489 161.423 " stroke="none" fill="#fcf8f7" fill-rule="evenodd"></path><path id="path1" d="M135.800 1.198 C 132.881 1.396,131.152 1.743,129.400 2.482 C 128.080 3.038,126.190 3.616,125.200 3.766 C 123.416 4.036,115.591 7.910,111.227 10.684 C 107.415 13.108,102.824 17.281,98.329 22.409 C 94.698 26.550,94.130 27.314,93.427 28.998 C 93.061 29.873,92.435 30.952,92.036 31.395 C 91.637 31.838,91.131 32.740,90.911 33.400 C 90.691 34.061,90.036 35.301,89.456 36.156 C 88.875 37.012,88.399 38.092,88.398 38.556 C 88.396 39.020,88.112 39.940,87.765 40.600 C 86.850 42.343,86.013 44.864,86.006 45.896 C 86.003 46.390,85.505 48.190,84.900 49.896 L 83.800 53.000 83.800 199.800 L 83.800 346.600 84.857 350.000 C 85.438 351.870,86.140 354.390,86.416 355.600 C 86.693 356.810,87.148 358.160,87.427 358.600 C 87.706 359.040,88.146 360.210,88.404 361.200 C 88.662 362.190,89.396 363.796,90.036 364.769 C 90.676 365.741,91.200 366.866,91.200 367.269 C 91.200 367.671,91.363 368.000,91.562 368.000 C 91.761 368.000,92.489 369.125,93.181 370.500 C 93.873 371.875,95.064 373.720,95.828 374.600 C 96.592 375.480,98.152 377.280,99.295 378.600 C 105.971 386.310,119.682 395.274,126.497 396.383 C 127.723 396.583,129.508 397.149,130.463 397.641 C 133.190 399.046,138.168 399.149,203.200 399.149 C 269.773 399.149,273.072 399.073,276.439 397.468 C 277.670 396.880,279.204 396.400,279.849 396.400 C 280.493 396.400,282.096 395.866,283.410 395.213 C 284.725 394.559,285.990 394.019,286.222 394.013 C 286.454 394.006,287.463 393.480,288.464 392.845 C 289.466 392.210,290.708 391.556,291.225 391.392 C 294.395 390.386,304.697 382.079,307.490 378.276 C 308.268 377.217,309.234 375.957,309.639 375.476 C 311.261 373.543,313.200 370.765,313.934 369.324 C 314.361 368.486,315.270 366.810,315.955 365.600 C 317.783 362.369,318.450 360.816,318.691 359.223 C 318.810 358.440,319.350 356.846,319.892 355.681 C 320.614 354.126,320.984 352.369,321.281 349.081 C 321.504 346.616,322.026 343.535,322.443 342.234 C 323.529 338.840,323.633 61.721,322.550 58.000 C 322.198 56.790,321.675 53.730,321.389 51.200 C 320.827 46.230,320.414 44.527,319.432 43.124 C 319.084 42.628,318.797 41.767,318.794 41.211 C 318.787 40.046,317.976 37.548,317.344 36.746 C 317.108 36.446,316.062 34.580,315.021 32.600 C 309.918 22.894,300.208 13.004,291.322 8.462 C 290.485 8.034,288.219 6.851,286.288 5.833 C 284.266 4.767,281.974 3.878,280.888 3.737 C 279.849 3.603,278.024 3.040,276.831 2.485 C 275.115 1.687,273.693 1.411,270.031 1.164 C 264.400 0.784,141.430 0.815,135.800 1.198 M156.361 161.306 C 158.148 162.224,158.878 163.661,162.201 172.800 C 162.720 174.230,163.807 177.110,164.616 179.200 C 165.425 181.290,166.624 184.440,167.281 186.200 C 167.938 187.960,168.887 190.480,169.390 191.800 C 170.284 194.142,171.397 197.097,173.988 204.000 C 176.520 210.744,177.549 213.464,178.986 217.200 C 179.789 219.290,180.877 222.170,181.403 223.600 C 182.974 227.868,184.224 231.181,185.782 235.200 C 186.592 237.290,187.682 240.170,188.204 241.600 C 188.726 243.030,189.805 245.910,190.600 248.000 C 191.395 250.090,192.473 252.970,192.995 254.400 C 193.516 255.830,195.049 259.880,196.400 263.400 C 197.751 266.920,199.277 270.970,199.790 272.400 C 203.743 283.421,204.590 283.533,208.361 273.531 C 209.549 270.379,211.049 266.450,211.694 264.800 C 213.006 261.444,214.561 257.374,216.355 252.600 C 217.016 250.840,218.119 247.960,218.806 246.200 C 219.493 244.440,220.571 241.650,221.200 240.000 C 221.829 238.350,222.907 235.560,223.594 233.800 C 224.281 232.040,225.349 229.250,225.968 227.600 C 227.396 223.794,229.196 219.093,230.794 215.000 C 231.481 213.240,232.588 210.360,233.254 208.600 C 234.695 204.796,235.795 201.927,237.781 196.800 C 238.590 194.710,239.589 192.100,240.000 191.000 C 240.411 189.900,241.413 187.290,242.226 185.200 C 243.040 183.110,244.113 180.320,244.611 179.000 C 245.110 177.680,246.068 175.160,246.740 173.400 C 247.412 171.640,248.509 168.760,249.178 167.000 C 251.701 160.357,249.937 160.812,273.200 160.812 C 298.194 160.812,296.731 160.003,291.982 171.200 C 291.282 172.850,290.120 175.640,289.400 177.400 C 284.060 190.445,281.422 196.849,277.784 205.600 C 277.282 206.810,276.206 209.420,275.394 211.400 C 274.583 213.380,273.505 215.990,273.000 217.200 C 272.038 219.503,270.760 222.612,267.078 231.600 C 265.086 236.463,261.422 245.336,258.984 251.200 C 258.482 252.410,257.406 255.020,256.594 257.000 C 255.783 258.980,254.705 261.590,254.200 262.800 C 253.695 264.010,252.617 266.620,251.806 268.600 C 250.994 270.580,249.876 273.280,249.321 274.600 C 248.766 275.920,247.808 278.260,247.191 279.800 C 246.575 281.340,244.875 285.480,243.413 289.000 C 241.952 292.520,239.754 297.830,238.530 300.800 C 237.305 303.770,235.891 307.190,235.387 308.400 C 234.882 309.610,233.806 312.220,232.994 314.200 C 232.183 316.180,231.103 318.790,230.594 320.000 C 228.896 324.042,222.762 339.038,221.535 342.150 C 218.733 349.252,220.041 348.800,202.307 348.800 C 183.628 348.800,185.446 349.457,182.394 341.600 C 181.497 339.290,180.415 336.590,179.990 335.600 C 179.565 334.610,178.835 332.810,178.370 331.600 C 176.912 327.815,175.567 324.449,165.818 300.200 C 160.600 287.220,155.915 275.520,155.407 274.200 C 154.899 272.880,153.941 270.450,153.279 268.800 C 151.896 265.355,150.215 261.153,148.437 256.700 C 147.757 254.995,146.660 252.250,146.000 250.600 C 145.340 248.950,144.243 246.205,143.563 244.500 C 142.882 242.795,141.819 240.140,141.200 238.600 C 140.581 237.060,139.535 234.450,138.875 232.800 C 138.215 231.150,137.101 228.360,136.400 226.600 C 135.699 224.840,134.585 222.050,133.925 220.400 C 133.265 218.750,132.185 216.050,131.525 214.400 C 130.865 212.750,129.820 210.140,129.201 208.600 C 128.583 207.060,127.696 204.810,127.230 203.600 C 126.765 202.390,126.036 200.590,125.612 199.600 C 121.897 190.929,111.600 164.229,111.600 163.268 C 111.600 160.749,111.130 160.799,134.389 160.806 C 150.269 160.810,155.635 160.932,156.361 161.306 " stroke="none" fill="#fc6c24" fill-rule="evenodd"></path></g></svg>